<?xml version="1.0" encoding="UTF-8"?>
<!DOCTYPE svg PUBLIC "-//W3C//DTD SVG 1.1//EN" "http://www.w3.org/Graphics/SVG/1.1/DTD/svg11.dtd">
<!-- Creator: CorelDRAW -->
<svg xmlns="http://www.w3.org/2000/svg" xml:space="preserve" width="1.7678mm" height="3mm" version="1.1" style="shape-rendering:geometricPrecision; text-rendering:geometricPrecision; image-rendering:optimizeQuality; fill-rule:evenodd; clip-rule:evenodd"
viewBox="0 0 4.3 7.3"
 xmlns:xlink="http://www.w3.org/1999/xlink"
 xmlns:xodm="http://www.corel.com/coreldraw/odm/2003">
 <defs>
  <style type="text/css">
   <![CDATA[
    .fil0 {fill:#BDBFC1}
   ]]>
  </style>
 </defs>
 <g id="Camada_x0020_1">
  <metadata id="CorelCorpID_0Corel-Layer"/>
  <path class="fil0" d="M4.3 0.61c0,0.26 -0.11,0.3 -0.3,0.49 -0.25,0.25 -2.46,2.48 -2.54,2.54l0.44 0.45c0.36,0.36 2.21,2.19 2.33,2.35 0.11,0.15 0.09,0.36 -0.01,0.49 -0.04,0.05 -0.28,0.29 -0.34,0.33 -0.05,0.03 -0.1,0.05 -0.14,0.05l-0.1 0c-0.22,-0.03 -0.4,-0.27 -0.52,-0.38l-2.96 -2.96c-0.36,-0.36 0.02,-0.64 0.22,-0.84l2.96 -2.96c0.13,-0.13 0.19,-0.16 0.37,-0.16 0.16,0 0.28,0.15 0.37,0.23 0.1,0.1 0.23,0.2 0.23,0.38z"/>
 </g>
</svg>
