<?xml version="1.0" encoding="UTF-8"?>
<!DOCTYPE svg PUBLIC "-//W3C//DTD SVG 1.1//EN" "http://www.w3.org/Graphics/SVG/1.1/DTD/svg11.dtd">
<!-- Creator: CorelDRAW -->
<svg xmlns="http://www.w3.org/2000/svg" xml:space="preserve" width="1.7677mm" height="3mm" version="1.1" style="shape-rendering:geometricPrecision; text-rendering:geometricPrecision; image-rendering:optimizeQuality; fill-rule:evenodd; clip-rule:evenodd"
viewBox="0 0 4.53 7.68"
 xmlns:xlink="http://www.w3.org/1999/xlink"
 xmlns:xodm="http://www.corel.com/coreldraw/odm/2003">
 <defs>
  <style type="text/css">
   <![CDATA[
    .fil0 {fill:#BDBFC1}
   ]]>
  </style>
 </defs>
 <g id="Camada_x0020_1">
  <metadata id="CorelCorpID_0Corel-Layer"/>
  <path class="fil0" d="M0.01 0.64c0,0.28 0.12,0.32 0.31,0.51 0.26,0.26 2.59,2.61 2.67,2.67l-0.46 0.47c-0.37,0.37 -2.33,2.3 -2.45,2.47 -0.12,0.16 -0.1,0.37 0.01,0.52 0.04,0.05 0.3,0.31 0.36,0.35 0.05,0.03 0.1,0.05 0.15,0.06l0.11 0c0.23,-0.03 0.42,-0.28 0.55,-0.4l3.11 -3.11c0.37,-0.38 -0.02,-0.67 -0.23,-0.89l-3.11 -3.11c-0.14,-0.14 -0.19,-0.17 -0.39,-0.17 -0.17,0 -0.3,0.15 -0.39,0.24 -0.1,0.1 -0.24,0.21 -0.24,0.4z"/>
 </g>
</svg>
